# xmcd
#
# Track frame offsets:
#  210
#  21586
#  48046
#  66816
#  99113
#  126751
#  142416
#  168884
#  189299
#  204401
#  223158
#  244942
#
# Disc length: 3477 seconds
#
# Revision: 0
# Processed by: cddbd v1.5.1PL0 Copyright (c) Steve Scherf et al.
# Submitted via: Collectorz.com_Music_Collector 6.9
#
DISCID=ac0d930c
DTITLE=Nate Turner - Hard Times
DYEAR=2004
DGENRE=Blues
TTITLE0=Hard Times
TTITLE1=Evil Woman
TTITLE2=Your Mama
TTITLE3=Too Late To Cry
TTITLE4=I Got The Blues
TTITLE5=Your Love
TTITLE6=I Got A Woman
TTITLE7=My Mind
TTITLE8=I've Gotta Find My Baby
TTITLE9=I'm Leaving
TTITLE10=Things Have Changed
TTITLE11=I Woke Up This Morning
EXTD=
EXTT0=
EXTT1=
EXTT2=
EXTT3=
EXTT4=
EXTT5=
EXTT6=
EXTT7=
EXTT8=
EXTT9=
EXTT10=
EXTT11=
PLAYORDER=
